<svg width="24" height="25" viewBox="0 0 24 25" fill="none" xmlns="http://www.w3.org/2000/svg">
<path d="M14.8488 16.593C17.2578 16.593 19.2174 14.6334 19.2174 12.2256C19.2174 9.81544 17.2572 7.85584 14.8488 7.85584C12.4398 7.85584 10.4796 9.81604 10.4796 12.2256C10.4796 14.6334 12.4398 16.593 14.8488 16.593ZM14.8488 8.57464C15.8164 8.57607 16.7439 8.96118 17.4278 9.6455C18.1118 10.3298 18.4965 11.2575 18.4974 12.225C18.4963 13.1923 18.1115 14.1196 17.4275 14.8035C16.7435 15.4875 15.8161 15.8721 14.8488 15.873C13.8815 15.8721 12.9541 15.4875 12.2699 14.8036C11.5858 14.1197 11.2009 13.1924 11.1996 12.225C11.2002 10.2126 12.837 8.57464 14.8488 8.57464ZM22.827 20.7282C22.6356 17.3178 19.5372 17.109 19.4862 17.1072L10.191 17.1078C10.1598 17.109 7.06083 17.3184 6.87003 20.748V23.3328C6.87003 23.4283 6.90796 23.5199 6.97547 23.5874C7.04299 23.6549 7.13455 23.6928 7.23003 23.6928H22.467C22.5625 23.6928 22.6541 23.6549 22.7216 23.5874C22.7891 23.5199 22.827 23.4283 22.827 23.3328V20.7282ZM22.1076 22.9728H7.59063L7.59003 20.7678C7.74363 18.0108 10.1304 17.832 10.2108 17.8266L19.4652 17.826C19.5666 17.8326 21.9528 18.0114 22.107 20.748L22.1076 22.9728ZM7.57083 12.2988H7.57323C8.31303 12.2934 8.95383 12.0282 9.47763 11.5092C10.002 10.9854 10.2672 10.3446 10.2672 9.60364C10.2672 8.85904 10.0014 8.21704 9.47763 7.69744C8.95323 7.17364 8.31243 6.90784 7.57203 6.90784C6.82743 6.90784 6.18543 7.17364 5.66703 7.69684C5.14263 8.21704 4.87683 8.85904 4.87683 9.60364C4.87683 10.344 5.14263 10.9854 5.66643 11.5086C6.18603 12.0282 6.82623 12.294 7.57083 12.2988ZM5.98623 8.01544C6.42423 7.57324 6.94383 7.35784 7.57263 7.35784C8.19783 7.35784 8.71743 7.57324 9.16083 8.01724C9.60303 8.45524 9.81843 8.97484 9.81843 9.60424C9.81843 10.23 9.60303 10.749 9.16083 11.1906C8.71863 11.6292 8.19843 11.8452 7.57263 11.85C6.94263 11.8452 6.42303 11.6304 5.98503 11.1912C5.54223 10.7496 5.32683 10.23 5.32683 9.60424C5.32683 8.97424 5.54223 8.45524 5.98623 8.01544Z" fill="black"/>
<path d="M7.22311 10.6234C7.26375 10.6591 7.31602 10.6787 7.37011 10.6786C7.40229 10.6785 7.43408 10.6716 7.46336 10.6582C7.49264 10.6449 7.51874 10.6255 7.53991 10.6012L9.06331 8.85522C9.10246 8.81027 9.12214 8.75161 9.11803 8.69214C9.11393 8.63267 9.08636 8.57727 9.04141 8.53812C8.99646 8.49898 8.93779 8.47929 8.87832 8.4834C8.81886 8.48751 8.76346 8.51507 8.72431 8.56002L7.34851 10.1368L6.67171 9.55182C6.64941 9.53252 6.62353 9.5178 6.59554 9.50849C6.56755 9.49919 6.538 9.49549 6.50859 9.49761C6.47917 9.49973 6.45046 9.50762 6.42409 9.52083C6.39772 9.53405 6.37421 9.55232 6.35491 9.57462C6.3356 9.59692 6.32088 9.6228 6.31158 9.65079C6.30228 9.67878 6.29858 9.70833 6.3007 9.73775C6.30282 9.76716 6.31071 9.79588 6.32392 9.82224C6.33713 9.84861 6.35541 9.87212 6.37771 9.89142L7.22311 10.6234ZM12.0777 6.81342C12.0777 6.81342 12.1821 6.66342 12.4485 6.57342C12.6543 6.50382 12.7857 6.48282 12.7857 6.48282V4.73142C12.7857 4.27062 12.4449 3.87102 11.9253 3.87102H10.6089V4.57902H12.0777V6.81342ZM5.39551 5.60922H9.74011C9.96211 5.60922 10.1703 5.45322 10.1703 5.17062V4.14342C10.1703 3.75222 9.85891 3.43242 9.46831 3.43242H9.30151C9.10831 2.68242 8.37511 2.13342 7.56331 2.13342C6.75151 2.13342 6.01831 2.68242 5.82571 3.43242H5.66731C5.27671 3.43242 4.95691 3.75222 4.95691 4.14342V5.17062C4.95691 5.42502 5.14231 5.60922 5.39551 5.60922ZM7.56331 3.00222C8.04451 3.00222 8.43211 3.38982 8.43211 3.87102C8.43211 4.35222 8.04451 4.73982 7.56331 4.73982C7.44915 4.74006 7.33607 4.71775 7.23055 4.67417C7.12504 4.6306 7.02917 4.56661 6.94845 4.48589C6.86772 4.40516 6.80374 4.30929 6.76016 4.20378C6.71658 4.09826 6.69427 3.98518 6.69451 3.87102C6.69451 3.38982 7.08211 3.00222 7.56331 3.00222Z" fill="black"/>
<path d="M9.57125 14.4679H3.05765V4.57873H4.52645V3.87073H3.21065C2.74985 3.87073 2.35925 4.26973 2.35925 4.73113V14.3239C2.35925 14.7847 2.74985 15.1663 3.21065 15.1663H10.2475C10.2475 15.1669 9.71465 14.9461 9.57125 14.4679Z" fill="black"/>
</svg>
