<svg width="24" height="20" viewBox="0 0 24 20" fill="none" xmlns="http://www.w3.org/2000/svg">
<path d="M23.25 3.93341C23.25 3.63341 23.1 3.40841 22.875 3.25841L17.625 0.258411C17.475 0.183411 17.4 0.183411 17.25 0.183411C17.1 0.183411 17.025 0.183411 16.875 0.258411L12 3.03341L7.125 0.258411C6.975 0.183411 6.9 0.183411 6.75 0.183411C6.6 0.183411 6.525 0.183411 6.375 0.258411L1.125 3.25841C0.9 3.40841 0.75 3.63341 0.75 3.93341V18.9334C0.75 19.3834 1.05 19.6834 1.5 19.6834C1.65 19.6834 1.725 19.6084 1.875 19.6084L6.75 16.8334L11.625 19.6084C11.775 19.6834 11.85 19.6834 12 19.6834C12.15 19.6834 12.225 19.6834 12.375 19.6084L17.25 16.8334L22.125 19.6084C22.2 19.6834 22.35 19.6834 22.5 19.6834C22.95 19.6834 23.25 19.3834 23.25 18.9334V3.93341ZM2.25 4.38341L6 2.20841V15.4834L2.25 17.6584V4.38341ZM11.25 17.6584L7.5 15.4834V2.20841L11.25 4.38341V17.6584ZM16.5 15.4834L12.75 17.6584V4.38341L16.5 2.20841V15.4834ZM18 15.4834V2.20841L21.75 4.38341V17.6584L18 15.4834Z" fill="black"/>
</svg>
