<svg width="24" height="25" viewBox="0 0 24 25" fill="none" xmlns="http://www.w3.org/2000/svg">
<path d="M7.99797 16.9334H11.998M7.99797 11.9334H15.998M7.49997 4.43341C5.94397 4.48041 5.01697 4.65341 4.37497 5.29541C3.49597 6.17541 3.49597 7.59041 3.49597 10.4214V16.9274C3.49597 19.7594 3.49597 21.1744 4.37497 22.0544C5.25297 22.9334 6.66797 22.9334 9.49597 22.9334H14.496C17.325 22.9334 18.739 22.9334 19.617 22.0534C20.497 21.1744 20.497 19.7594 20.497 16.9274V10.4214C20.497 7.59141 20.497 6.17541 19.617 5.29541C18.976 4.65341 18.048 4.48041 16.492 4.43341" stroke="black" stroke-width="1.5" stroke-linecap="round" stroke-linejoin="round"/>
<path d="M7.49597 4.68341C7.49597 3.71741 8.27997 2.93341 9.24597 2.93341H14.746C15.2101 2.93341 15.6552 3.11779 15.9834 3.44597C16.3116 3.77416 16.496 4.21928 16.496 4.68341C16.496 5.14754 16.3116 5.59266 15.9834 5.92085C15.6552 6.24904 15.2101 6.43341 14.746 6.43341H9.24597C8.78184 6.43341 8.33672 6.24904 8.00853 5.92085C7.68035 5.59266 7.49597 5.14754 7.49597 4.68341Z" stroke="black" stroke-width="1.5" stroke-linecap="round" stroke-linejoin="round"/>
</svg>
