<svg width="22" height="21" viewBox="0 0 22 21" fill="none" xmlns="http://www.w3.org/2000/svg">
<path d="M21.4231 8.11812C21.3294 7.82986 21.1524 7.5758 20.9145 7.38795C20.6766 7.2001 20.3884 7.08686 20.0863 7.06249L14.555 6.61624L12.4194 1.45155C12.3039 1.17013 12.1073 0.929412 11.8547 0.759996C11.602 0.59058 11.3047 0.500122 11.0005 0.500122C10.6963 0.500122 10.3989 0.59058 10.1463 0.759996C9.89363 0.929412 9.69706 1.17013 9.58157 1.45155L7.44782 6.6153L1.91375 7.06249C1.61111 7.08809 1.32274 7.20243 1.08479 7.39118C0.846839 7.57994 0.669882 7.83472 0.57609 8.12361C0.482298 8.41249 0.475843 8.72263 0.557532 9.01516C0.639222 9.3077 0.805424 9.56962 1.03531 9.76812L5.25407 13.4084L3.96875 18.8516C3.89687 19.1473 3.91447 19.4577 4.01932 19.7434C4.12417 20.0291 4.31154 20.2771 4.55765 20.4562C4.80376 20.6352 5.09751 20.737 5.4016 20.7488C5.7057 20.7605 6.00643 20.6817 6.26563 20.5222L11 17.6084L15.7372 20.5222C15.9965 20.6798 16.2966 20.7571 16.5998 20.7445C16.9029 20.7318 17.1955 20.6298 17.4408 20.4512C17.6861 20.2725 17.873 20.0254 17.9781 19.7407C18.0832 19.4561 18.1017 19.1467 18.0313 18.8516L16.7413 13.4075L20.96 9.76718C21.1918 9.56902 21.3595 9.30652 21.4419 9.01296C21.5244 8.71939 21.5178 8.40796 21.4231 8.11812Z" fill="black"/>
</svg>
