<svg width="25" height="22" viewBox="0 0 25 22" fill="none" xmlns="http://www.w3.org/2000/svg">
<path d="M17.0001 7.19864V4.99964H8.00008C6.97897 4.99954 5.97473 5.26004 5.08243 5.75648C4.19012 6.25292 3.43928 6.96887 2.90097 7.83656C2.36267 8.70425 2.05471 9.69497 2.00626 10.7149C1.9578 11.7349 2.17045 12.7503 2.62408 13.6651C2.66801 13.7534 2.69412 13.8494 2.70093 13.9478C2.70775 14.0461 2.69512 14.1448 2.66378 14.2383C2.63244 14.3318 2.583 14.4181 2.51828 14.4925C2.45356 14.5668 2.37483 14.6277 2.28658 14.6716C2.19833 14.7156 2.10229 14.7417 2.00395 14.7485C1.90561 14.7553 1.80689 14.7427 1.71343 14.7113C1.61997 14.68 1.53359 14.6306 1.45924 14.5658C1.38488 14.5011 1.32401 14.4224 1.28008 14.3341C0.712439 13.1905 0.446142 11.9209 0.506408 10.6456C0.566675 9.3703 0.951511 8.13147 1.62447 7.04648C2.29742 5.96149 3.23621 5.06626 4.35193 4.44557C5.46764 3.82489 6.72334 3.4993 8.00008 3.49964H17.0001V1.30064C17.0001 1.22939 17.0204 1.15961 17.0587 1.09949C17.0969 1.03937 17.1515 0.991394 17.216 0.961175C17.2806 0.930956 17.3524 0.919747 17.423 0.928862C17.4937 0.937977 17.5603 0.967038 17.6151 1.01264L21.1551 3.96164C21.3351 4.11164 21.3351 4.38764 21.1551 4.53764L17.6151 7.48664C17.5603 7.53224 17.4937 7.56131 17.423 7.57042C17.3524 7.57953 17.2806 7.56833 17.216 7.53811C17.1515 7.50789 17.0969 7.45991 17.0587 7.39979C17.0204 7.33967 17.0001 7.2699 17.0001 7.19864ZM22.7151 7.32764C22.8931 7.23922 23.099 7.2251 23.2874 7.28839C23.4759 7.35167 23.6315 7.48718 23.7201 7.66514C24.2877 8.80876 24.554 10.0783 24.4937 11.3537C24.4335 12.629 24.0486 13.8678 23.3757 14.9528C22.7027 16.0378 21.7639 16.933 20.6482 17.5537C19.5325 18.1744 18.2768 18.5 17.0001 18.4996H8.00008V20.6986C8.00005 20.7699 7.97972 20.8397 7.94148 20.8998C7.90323 20.9599 7.84864 21.0079 7.78411 21.0381C7.71958 21.0683 7.64778 21.0795 7.57711 21.0704C7.50644 21.0613 7.43983 21.0322 7.38508 20.9866L3.84508 18.0376C3.80288 18.0024 3.76892 17.9584 3.74562 17.9086C3.72232 17.8589 3.71025 17.8046 3.71025 17.7496C3.71025 17.6947 3.72232 17.6404 3.74562 17.5906C3.76892 17.5409 3.80288 17.4968 3.84508 17.4616L7.38508 14.5126C7.43983 14.467 7.50644 14.438 7.57711 14.4289C7.64778 14.4197 7.71958 14.431 7.78411 14.4612C7.84864 14.4914 7.90323 14.5394 7.94148 14.5995C7.97972 14.6596 8.00005 14.7294 8.00008 14.8006V16.9996H17.0001C18.0213 17 19.0257 16.7397 19.9182 16.2433C20.8108 15.747 21.5618 15.0311 22.1003 14.1634C22.6388 13.2956 22.9469 12.3048 22.9954 11.2847C23.0439 10.2647 22.8313 9.24907 22.3776 8.33414C22.2892 8.1561 22.275 7.95024 22.3383 7.76179C22.4016 7.57334 22.5371 7.41623 22.7151 7.32764Z" fill="#1B281B"/>
</svg>
